<svg version="1.1" xmlns="http://www.w3.org/2000/svg" xmlns:xlink="http://www.w3.org/1999/xlink" width="400" height="400" viewBox="0 0 400 400"><defs/><g><path fill="none" stroke="rgb(255,0,0)" paint-order="fill stroke markers" d=" M 30 20 L 130 20 L 130 20 A 10 10 0 0 1 140 30 L 140 90 L 140 90 A 10 10 0 0 1 130 100 L 30 100 L 30 100 A 10 10 0 0 1 20 90 L 20 30 L 20 30 A 10 10 0 0 1 30 20 Z" stroke-opacity="1" stroke-linecap="round" stroke-miterlimit="10" stroke-dasharray=""/><path fill="none" stroke="rgb(255,0,0)" paint-order="fill stroke markers" d=" M 40 35 A 5 5 0 1 1 39.999997500000205 34.99500000083333 Z" stroke-opacity="1" stroke-linecap="round" stroke-miterlimit="10" stroke-dasharray=""/><g><text fill="rgb(0,0,0)" stroke="none" font-family="sans-serif" font-size="20px" font-style="normal" font-weight="normal" text-decoration="undefined" x="50" y="60" text-anchor="start" dominant-baseline="alphabetic" transform="matrix(1 0 0 1 0 0)" fill-opacity="1">Грецкий</text></g><g><text fill="rgb(0,0,0)" stroke="none" font-family="sans-serif" font-size="20px" font-style="normal" font-weight="normal" text-decoration="undefined" x="50" y="80" text-anchor="start" dominant-baseline="alphabetic" transform="matrix(1 0 0 1 0 0)" fill-opacity="1">орех</text></g></g></svg>